<svg xmlns="http://www.w3.org/2000/svg" viewBox="0 0 512 512">
  <defs>
    <radialGradient id="planet" cx="37%" cy="32%" r="68%">
      <stop offset="0" stop-color="#fff7a8"/>
      <stop offset="0.2" stop-color="#66f7ff"/>
      <stop offset="0.58" stop-color="#7a45ff"/>
      <stop offset="1" stop-color="#12072b"/>
    </radialGradient>
    <linearGradient id="ring" x1="64" x2="448" y1="360" y2="152">
      <stop offset="0" stop-color="#ff3d9a"/>
      <stop offset="0.45" stop-color="#66f7ff"/>
      <stop offset="1" stop-color="#ffe96a"/>
    </linearGradient>
    <filter id="glow" x="-40%" y="-40%" width="180%" height="180%">
      <feGaussianBlur stdDeviation="10" result="blur"/>
      <feMerge>
        <feMergeNode in="blur"/>
        <feMergeNode in="SourceGraphic"/>
      </feMerge>
    </filter>
  </defs>
  <rect width="512" height="512" rx="112" fill="#05091e"/>
  <circle cx="256" cy="256" r="116" fill="url(#planet)" filter="url(#glow)"/>
  <path d="M62 320c76 42 210 34 319-23 51-27 84-59 94-88 8-22-1-40-23-52" fill="none" stroke="url(#ring)" stroke-width="30" stroke-linecap="round" opacity="0.95"/>
  <path d="M450 178c-73-29-192-17-290 33-57 30-95 66-104 98-6 22 5 39 31 50" fill="none" stroke="#66f7ff" stroke-width="12" stroke-linecap="round" opacity="0.55"/>
  <circle cx="386" cy="142" r="18" fill="#ffe96a" filter="url(#glow)"/>
  <path d="M256 156v200M156 256h200" stroke="#ffffff" stroke-width="32" stroke-linecap="round" opacity="0.88"/>
</svg>
